<?xml version="1.0" encoding="utf-8"?>
<!-- Generator: Adobe Illustrator 19.1.0, SVG Export Plug-In . SVG Version: 6.00 Build 0)  -->
<svg version="1.1" id="Слой_3" xmlns="http://www.w3.org/2000/svg" xmlns:xlink="http://www.w3.org/1999/xlink" x="0px" y="0px"
	 viewBox="0 0 128 128" enable-background="new 0 0 128 128" xml:space="preserve">
<g>
	<path fill="#B8CBCD" d="M112.386,110.647c0,5.626-21.343,10.187-47.668,10.187c-26.326,0-47.667-4.561-47.667-10.187
		c0-5.626,21.674-9.813,48-9.813C91.376,100.834,112.386,105.021,112.386,110.647z"/>
	<path fill="#B9E3ED" d="M32.806,73.964l-16.88,25.12c-2.074,3.36-0.235,8.676,3.125,10.75c3.36,2.074,9.801,3.048,11.875-0.313
		L45.9,82.113l10.235,1.144c12.121-0.641,24.558-8.02,32.265-20.505c11.557-18.722,8.104-41.813-7.712-51.577
		s-38.007-2.502-49.564,16.22c-6.783,10.988-8.389,23.479-5.365,33.9l-0.008-0.005l0.029,0.081L32.806,73.964z"/>
	<path fill="#324654" d="M25.88,114.723C25.88,114.723,25.88,114.723,25.88,114.723c-2.85,0-6.07-0.896-8.404-2.336
		c-4.449-2.746-7.21-9.844-4.102-14.878c0.02-0.033,0.041-0.065,0.063-0.098l15.853-23.592L23.16,62.832
		c-0.081-0.145-0.149-0.296-0.205-0.452c-0.029-0.083-0.055-0.167-0.077-0.251c-3.397-11.71-1.322-24.946,5.694-36.311
		c8.371-13.561,22.37-21.985,36.533-21.985c6.152,0,12.086,1.656,17.16,4.788c17.199,10.617,21.097,35.606,8.689,55.706
		C83.045,77.139,69.764,85.54,56.294,86.252c-0.165,0.01-0.329,0.004-0.492-0.014l-8.235-0.92L33.559,110.96
		c-0.025,0.046-0.052,0.092-0.08,0.137C32.035,113.436,29.337,114.723,25.88,114.723z M18.455,100.699
		c-0.484,0.82-0.536,2.069-0.139,3.356c0.424,1.372,1.309,2.607,2.31,3.226c1.397,0.862,3.508,1.442,5.253,1.442h0.001
		c1.206,0,2.142-0.281,2.466-0.736l14.921-27.313c0.584-1.068,1.757-1.681,2.966-1.543l9.984,1.116
		c11.453-0.699,22.788-7.987,29.63-19.071c10.669-17.284,7.648-38.569-6.735-47.449c-4.186-2.583-8.898-3.894-14.008-3.894
		c-12.098,0-24.141,7.332-31.427,19.136c-6.078,9.846-7.933,21.218-5.107,31.244l6.856,12.288c0.55,0.986,0.499,2.197-0.13,3.135
		L18.455,100.699z"/>
	<path fill="#B9E3ED" d="M32.806,73.964l-16.88,25.12c-2.074,3.36-0.235,8.676,3.125,10.75c3.36,2.074,9.801,3.048,11.875-0.313
		L45.9,82.113l10.235,1.144c12.121-0.641,24.558-8.02,32.265-20.505c11.557-18.722,8.104-41.813-7.712-51.577
		s-38.007-2.502-49.564,16.22c-6.783,10.988-8.389,23.479-5.365,33.9l-0.008-0.005l0.029,0.081"/>
	<path fill="#324654" d="M25.885,114.723c-0.172,0-0.346-0.003-0.523-0.009c-2.738-0.099-5.687-0.969-7.887-2.327
		c-4.449-2.746-7.21-9.844-4.102-14.878c0.02-0.033,0.041-0.065,0.063-0.098l16.88-25.12c0.924-1.375,2.788-1.74,4.164-0.817
		c1.375,0.924,1.741,2.788,0.817,4.164l-16.841,25.062c-0.483,0.82-0.536,2.07-0.138,3.356c0.424,1.372,1.309,2.607,2.31,3.226
		c1.315,0.812,3.259,1.375,4.952,1.437c1.346,0.046,2.416-0.238,2.767-0.732l14.921-27.312c0.584-1.068,1.757-1.681,2.966-1.543
		l9.984,1.116c11.453-0.699,22.788-7.987,29.63-19.071c10.669-17.284,7.648-38.569-6.735-47.449
		c-6.886-4.251-15.362-5.06-23.871-2.274c-8.688,2.843-16.347,9.064-21.565,17.516c-6.127,9.926-7.963,21.403-5.037,31.489
		c0.163,0.561,0.155,1.141-0.001,1.676c-0.254,0.906-0.919,1.683-1.863,2.02c-1.559,0.56-3.263-0.215-3.82-1.774
		c-0.03-0.083-0.056-0.167-0.078-0.251c-3.397-11.711-1.322-24.945,5.694-36.311c5.961-9.657,14.771-16.784,24.805-20.067
		C63.591,2.407,73.85,3.428,82.264,8.622c17.199,10.617,21.097,35.606,8.689,55.706C83.045,77.139,69.764,85.54,56.294,86.252
		c-0.165,0.01-0.329,0.004-0.492-0.014l-8.235-0.92L33.559,110.96c-0.025,0.046-0.052,0.092-0.08,0.137
		C32.029,113.446,29.345,114.723,25.885,114.723z"/>
	<path fill="#FFFFFF" d="M26.776,59.176c-1.657,0-3-1.343-3-3c0-23.666,10.663-39.399,30.836-45.499
		c14.457-4.373,25.184-2.617,35.868,5.87c1.297,1.031,1.513,2.918,0.483,4.215c-1.031,1.297-2.918,1.514-4.215,0.483
		c-9.077-7.211-17.884-8.611-30.399-4.825c-21.962,6.641-26.572,25.285-26.572,39.756C29.776,57.833,28.433,59.176,26.776,59.176z"
		/>
	<path fill="#324654" d="M25.88,114.723C25.88,114.723,25.88,114.723,25.88,114.723c-2.85,0-6.07-0.896-8.404-2.336
		c-4.449-2.746-7.21-9.844-4.102-14.878c0.02-0.033,0.041-0.065,0.063-0.098l15.687-23.344c-4.314-6.005-6.145-11.6-6.228-11.857
		c-0.03-0.092-0.055-0.186-0.075-0.279c-3.317-11.662-1.226-24.811,5.751-36.112c8.371-13.561,22.37-21.985,36.533-21.985
		c6.152,0,12.086,1.656,17.16,4.788c17.199,10.617,21.097,35.606,8.689,55.706C83.045,77.139,69.764,85.54,56.294,86.252
		c-0.165,0.01-0.329,0.004-0.492-0.014l-8.235-0.92L33.559,110.96c-0.025,0.046-0.052,0.092-0.08,0.137
		C32.035,113.436,29.337,114.723,25.88,114.723z M18.455,100.699c-0.484,0.82-0.536,2.069-0.139,3.356
		c0.424,1.372,1.309,2.607,2.31,3.226c1.397,0.862,3.508,1.442,5.253,1.442h0.001c1.206,0,2.142-0.281,2.466-0.736l14.921-27.313
		c0.584-1.068,1.757-1.681,2.966-1.543l9.984,1.116c11.453-0.699,22.788-7.987,29.63-19.071
		c10.669-17.284,7.648-38.569-6.735-47.449c-4.186-2.583-8.898-3.894-14.008-3.894c-12.098,0-24.141,7.332-31.427,19.136
		c-6.127,9.926-7.963,21.403-5.037,31.489c0.005,0.017,0.009,0.034,0.014,0.05c0.324,0.928,2.324,6.342,6.499,11.587
		c0.814,1.023,0.872,2.456,0.143,3.542L18.455,100.699z"/>
	<path fill="#324654" d="M66.716,82.578c-0.358,0-0.721-0.097-1.049-0.299l-41.032-25.33c-0.94-0.58-1.232-1.813-0.651-2.752
		c0.58-0.94,1.813-1.23,2.752-0.651l41.032,25.33c0.94,0.58,1.231,1.813,0.651,2.752C68.041,82.24,67.386,82.578,66.716,82.578z"/>
	<path fill="#FFBAB0" d="M44.05,78.832L16.697,95.12c-3.224,2.281-2.217,9.245,0.064,12.468c2.281,3.224,8.514,6.489,11.737,4.207
		l24.415-20.343l8.973,5.056c11.406,4.151,25.738,2.225,37.715-6.251c17.959-12.71,23.813-35.312,13.076-50.484
		c-10.737-15.172-34-17.169-51.959-4.459c-10.541,7.46-16.904,18.328-18.198,29.102l-0.005-0.008l-0.005,0.085"/>
	<path fill="#783741" d="M25.844,115.561c-1.465,0-3.059-0.344-4.72-1.035c-2.734-1.137-5.345-3.131-6.812-5.205
		c-1.467-2.073-2.48-5.198-2.643-8.155c-0.21-3.825,0.959-6.842,3.295-8.495c0.064-0.045,0.13-0.088,0.198-0.129l27.353-16.288
		c1.424-0.85,3.265-0.382,4.113,1.043c0.848,1.423,0.381,3.265-1.043,4.112L18.373,97.614c-0.432,0.373-0.809,1.488-0.713,3.222
		c0.102,1.835,0.724,3.853,1.55,5.02c0.826,1.167,2.521,2.425,4.218,3.131c1.604,0.668,2.781,0.684,3.276,0.4l24.289-20.237
		c0.957-0.798,2.307-0.92,3.393-0.309l8.753,4.932c10.811,3.837,24.096,1.563,34.729-5.962c8.108-5.738,13.836-13.772,16.128-22.622
		c2.245-8.666,0.907-17.076-3.768-23.681c-4.674-6.605-12.161-10.664-21.08-11.429c-9.105-0.784-18.59,1.948-26.698,7.686
		c-9.521,6.738-15.7,16.583-16.952,27.01c-0.07,0.588-0.311,1.126-0.672,1.562c-0.588,0.722-1.494,1.172-2.486,1.111
		c-1.654-0.095-2.92-1.471-2.825-3.125c0.005-0.089,0.014-0.178,0.027-0.266c1.455-12.106,8.541-23.474,19.443-31.189
		c9.263-6.556,20.155-9.671,30.677-8.766c10.709,0.919,19.752,5.87,25.464,13.941s7.374,18.246,4.679,28.651
		c-2.647,10.221-9.207,19.459-18.471,26.015c-12.289,8.698-27.797,11.237-40.474,6.621c-0.154-0.056-0.304-0.125-0.447-0.205
		l-7.17-4.04l-22.825,19.018c-0.061,0.051-0.123,0.099-0.188,0.144C28.992,115.122,27.5,115.561,25.844,115.561z"/>
	<path fill="#FFBAB0" d="M44.05,78.832L16.697,95.12c-3.224,2.281-2.217,9.245,0.064,12.468c2.281,3.224,8.514,6.489,11.737,4.207
		l24.415-20.343l8.973,5.056c11.406,4.151,25.738,2.225,37.715-6.251c17.959-12.71,23.813-35.312,13.076-50.484
		c-10.737-15.172-34-17.169-51.959-4.459c-10.541,7.46-16.904,18.328-18.198,29.102l-0.005-0.008l-0.005,0.085L44.05,78.832z"/>
	<path fill="#FFFFFF" d="M45.77,62.279c-0.34,0-0.686-0.058-1.024-0.181c-1.557-0.566-2.361-2.286-1.796-3.844
		c4.671-12.865,16.152-23.006,30.71-27.127c14.711-4.164,29.949-1.531,40.755,7.044c1.298,1.03,1.515,2.917,0.485,4.215
		c-1.03,1.299-2.918,1.515-4.215,0.485c-9.299-7.379-22.528-9.612-35.392-5.971c-12.708,3.597-22.69,12.345-26.705,23.402
		C48.147,61.521,46.996,62.279,45.77,62.279z"/>
	<path fill="#783741" d="M25.843,115.558L25.843,115.558c-4.456,0-9.362-3.171-11.531-6.237c-1.467-2.073-2.48-5.198-2.643-8.155
		c-0.21-3.825,0.959-6.842,3.295-8.495c0.064-0.045,0.13-0.088,0.198-0.129l25.52-15.197c-1.663-8.601-1.206-12.833-1.144-13.319
		c0.007-0.06,0.017-0.119,0.028-0.177c1.51-12.029,8.578-23.313,19.418-30.984c8.125-5.75,17.761-8.917,27.133-8.917
		c12.097,0,22.67,5.136,29.008,14.092c5.712,8.071,7.374,18.246,4.679,28.651c-2.647,10.221-9.207,19.459-18.471,26.015
		c-8.119,5.746-17.749,8.911-27.117,8.911c-4.689,0-9.183-0.771-13.356-2.29c-0.154-0.056-0.304-0.125-0.447-0.205l-7.17-4.04
		l-22.825,19.018c-0.061,0.051-0.123,0.099-0.188,0.144C28.999,115.116,27.523,115.558,25.843,115.558z M18.373,97.614
		c-0.432,0.373-0.809,1.488-0.713,3.222c0.102,1.835,0.724,3.853,1.55,5.02c1.211,1.712,4.373,3.702,6.633,3.703h0
		c0.262,0,0.614-0.031,0.86-0.172l24.289-20.238c0.957-0.798,2.307-0.92,3.393-0.309l8.753,4.932
		c3.45,1.225,7.176,1.846,11.078,1.846c8.137,0,16.537-2.773,23.651-7.808c8.108-5.738,13.836-13.772,16.128-22.622
		c2.245-8.666,0.907-17.076-3.768-23.681c-5.198-7.345-13.986-11.558-24.111-11.558c-8.141,0-16.546,2.775-23.667,7.815
		c-9.521,6.738-15.7,16.583-16.952,27.01c-0.005,0.043-0.011,0.085-0.018,0.127c-0.056,0.731-0.279,5.078,1.502,13.296
		c0.273,1.26-0.29,2.553-1.397,3.213L18.373,97.614z"/>
	<path fill="#783741" d="M72.614,100.096c-0.627,0-1.245-0.294-1.634-0.845L43.246,60.063c-0.638-0.901-0.425-2.15,0.477-2.788
		c0.9-0.639,2.15-0.425,2.788,0.477l27.733,39.188c0.638,0.901,0.425,2.15-0.477,2.788C73.416,99.977,73.012,100.096,72.614,100.096
		z"/>
	<circle fill="#FFFFFF" cx="80.551" cy="55.334" r="9.5"/>
	<path fill="#783741" d="M80.551,66.834c-6.341,0-11.5-5.159-11.5-11.5s5.159-11.5,11.5-11.5s11.5,5.159,11.5,11.5
		S86.892,66.834,80.551,66.834z M80.551,47.834c-4.136,0-7.5,3.364-7.5,7.5s3.364,7.5,7.5,7.5c4.136,0,7.5-3.364,7.5-7.5
		S84.687,47.834,80.551,47.834z"/>
</g>
</svg>
