<svg width="64" height="64" viewBox="0 0 64 64" fill="none" xmlns="http://www.w3.org/2000/svg">
<path d="M51.52 17.4794C48.3425 14.3037 44.1225 12.386 39.6404 12.081C35.1583 11.776 30.7174 13.1044 27.139 15.8206C23.5606 18.5367 21.0869 22.4567 20.1752 26.8557C19.2636 31.2546 19.9757 35.8349 22.18 39.7494L12.49 49.4394C11.5792 50.3825 11.0752 51.6455 11.0866 52.9564C11.098 54.2674 11.6239 55.5215 12.5509 56.4485C13.4779 57.3756 14.732 57.9014 16.043 57.9128C17.354 57.9242 18.617 57.4202 19.56 56.5094L24.09 51.9994L29.19 46.8994C33.1155 49.2221 37.7578 50.0205 42.2337 49.1429C46.7096 48.2652 50.7067 45.7726 53.4642 42.1395C56.2218 38.5063 57.5475 33.9862 57.189 29.4391C56.8305 24.8921 54.8128 20.6356 51.52 17.4794V17.4794ZM18.15 55.0894C17.5813 55.6194 16.8291 55.9079 16.0519 55.8941C15.2747 55.8804 14.5331 55.5656 13.9835 55.0159C13.4338 54.4663 13.119 53.7247 13.1053 52.9475C13.0916 52.1703 13.3801 51.4181 13.91 50.8494L17.76 46.9994L22 51.2394L18.15 55.0894ZM29.61 44.7294H29.53C29.4709 44.6959 29.4067 44.6722 29.34 44.6594H29.16H29C28.937 44.6498 28.873 44.6498 28.81 44.6594L28.64 44.7394C28.5829 44.7703 28.5292 44.8072 28.48 44.8494H28.4L23.4 49.8494L19.16 45.6094L24.16 40.6094L24.21 40.5294C24.2523 40.4802 24.2891 40.4265 24.32 40.3694C24.3507 40.3148 24.3775 40.258 24.4 40.1994C24.4104 40.1365 24.4104 40.0723 24.4 40.0094C24.4052 39.9462 24.4052 39.8827 24.4 39.8194C24.4046 39.7595 24.4046 39.6994 24.4 39.6394C24.3872 39.5727 24.3636 39.5085 24.33 39.4494C24.3341 39.4229 24.3341 39.3959 24.33 39.3694C22.4089 36.293 21.5516 32.6706 21.89 29.0594L39.92 47.1694C36.3087 47.5093 32.6859 46.6519 29.61 44.7294V44.7294ZM50.11 42.3694C47.969 44.5122 45.2816 46.0271 42.34 46.7494L22.25 26.6594C22.8634 24.1742 24.0432 21.8645 25.6972 19.9109C27.3512 17.9572 29.4347 16.4126 31.7847 15.3976C34.1347 14.3827 36.6875 13.925 39.2437 14.0603C41.8 14.1956 44.2903 14.9202 46.52 16.1776C48.7497 17.4349 50.6585 19.1908 52.097 21.3082C53.5356 23.4255 54.465 25.8468 54.8126 28.3829C55.1602 30.919 54.9166 33.5011 54.1008 35.9274C53.285 38.3537 51.9192 40.5585 50.11 42.3694V42.3694Z" fill="url(#paint0_linear_197_6483)" id="id_111"></path>
<path d="M16.4502 19.5498C17.8347 19.5498 19.188 19.1393 20.3392 18.3701C21.4903 17.6009 22.3875 16.5077 22.9174 15.2286C23.4472 13.9495 23.5858 12.542 23.3157 11.1842C23.0456 9.82631 22.3789 8.57903 21.3999 7.60006C20.421 6.62109 19.1737 5.95441 17.8158 5.68431C16.458 5.41421 15.0505 5.55284 13.7714 6.08265C12.4923 6.61246 11.3991 7.50967 10.6299 8.66082C9.86074 9.81196 9.4502 11.1653 9.4502 12.5498C9.4502 14.4063 10.1877 16.1868 11.5004 17.4996C12.8132 18.8123 14.5937 19.5498 16.4502 19.5498V19.5498ZM16.4502 7.54981C17.4391 7.54981 18.4058 7.84305 19.228 8.39246C20.0503 8.94187 20.6912 9.72276 21.0696 10.6364C21.448 11.55 21.547 12.5554 21.3541 13.5253C21.1612 14.4952 20.685 15.3861 19.9857 16.0853C19.2865 16.7846 18.3956 17.2608 17.4256 17.4537C16.4557 17.6467 15.4504 17.5476 14.5368 17.1692C13.6231 16.7908 12.8423 16.1499 12.2928 15.3277C11.7434 14.5054 11.4502 13.5387 11.4502 12.5498C11.4502 11.2237 11.977 9.95196 12.9147 9.01427C13.8523 8.07659 15.1241 7.54981 16.4502 7.54981V7.54981Z" fill="url(#paint1_linear_197_6483)" id="id_112"></path>
<defs>
<linearGradient id="paint0_linear_197_6483" x1="11.03" y1="34.9994" x2="56.96" y2="34.9994" gradientUnits="userSpaceOnUse">
<stop stop-color="#ad1f1f" id="id_113"></stop>
<stop offset="0.38" stop-color="#b81111" id="id_114"></stop>
<stop offset="0.79" stop-color="#ad1515" id="id_115"></stop>
<stop offset="1" stop-color="#940d0d" id="id_116"></stop>
</linearGradient>
<linearGradient id="paint1_linear_197_6483" x1="141.75" y1="181.25" x2="337.75" y2="181.25" gradientUnits="userSpaceOnUse">
<stop stop-color="#a30d0d" id="id_117"></stop>
<stop offset="0.38" stop-color="#a60707" id="id_118"></stop>
<stop offset="0.79" stop-color="#9e2626" id="id_119"></stop>
<stop offset="1" stop-color="#8f0d0d" id="id_120"></stop>
</linearGradient>
</defs>
</svg>